<svg xmlns="http://www.w3.org/2000/svg" viewBox="0 0 64 64" width="128" height="128" shape-rendering="crispEdges" role="img" aria-labelledby="t">
  <title id="t">Pixel-art document page with cyan text lines and a magenta push arrow</title>
  <rect x="8" y="0" width="40" height="4" fill="#22d3ee"/>
  <rect x="8" y="4" width="4" height="4" fill="#22d3ee"/>
  <rect x="12" y="4" width="32" height="4" fill="#e6edf3"/>
  <rect x="44" y="4" width="4" height="4" fill="#22d3ee"/>
  <rect x="8" y="8" width="4" height="4" fill="#22d3ee"/>
  <rect x="12" y="8" width="4" height="4" fill="#e6edf3"/>
  <rect x="16" y="8" width="24" height="4" fill="#22d3ee"/>
  <rect x="40" y="8" width="4" height="4" fill="#e6edf3"/>
  <rect x="44" y="8" width="4" height="4" fill="#22d3ee"/>
  <rect x="8" y="12" width="4" height="4" fill="#22d3ee"/>
  <rect x="12" y="12" width="32" height="4" fill="#e6edf3"/>
  <rect x="44" y="12" width="4" height="4" fill="#22d3ee"/>
  <rect x="8" y="16" width="4" height="4" fill="#22d3ee"/>
  <rect x="12" y="16" width="4" height="4" fill="#e6edf3"/>
  <rect x="16" y="16" width="24" height="4" fill="#22d3ee"/>
  <rect x="40" y="16" width="4" height="4" fill="#e6edf3"/>
  <rect x="44" y="16" width="4" height="4" fill="#22d3ee"/>
  <rect x="48" y="16" width="4" height="4" fill="#e879f9"/>
  <rect x="8" y="20" width="4" height="4" fill="#22d3ee"/>
  <rect x="12" y="20" width="32" height="4" fill="#e6edf3"/>
  <rect x="44" y="20" width="4" height="4" fill="#22d3ee"/>
  <rect x="48" y="20" width="8" height="4" fill="#e879f9"/>
  <rect x="8" y="24" width="4" height="4" fill="#22d3ee"/>
  <rect x="12" y="24" width="4" height="4" fill="#e6edf3"/>
  <rect x="16" y="24" width="16" height="4" fill="#22d3ee"/>
  <rect x="32" y="24" width="12" height="4" fill="#e6edf3"/>
  <rect x="44" y="24" width="4" height="4" fill="#22d3ee"/>
  <rect x="48" y="24" width="12" height="4" fill="#e879f9"/>
  <rect x="8" y="28" width="4" height="4" fill="#22d3ee"/>
  <rect x="12" y="28" width="32" height="4" fill="#e6edf3"/>
  <rect x="44" y="28" width="4" height="4" fill="#22d3ee"/>
  <rect x="48" y="28" width="8" height="4" fill="#e879f9"/>
  <rect x="8" y="32" width="4" height="4" fill="#22d3ee"/>
  <rect x="12" y="32" width="4" height="4" fill="#e6edf3"/>
  <rect x="16" y="32" width="24" height="4" fill="#22d3ee"/>
  <rect x="40" y="32" width="4" height="4" fill="#e6edf3"/>
  <rect x="44" y="32" width="4" height="4" fill="#22d3ee"/>
  <rect x="48" y="32" width="4" height="4" fill="#e879f9"/>
  <rect x="8" y="36" width="4" height="4" fill="#22d3ee"/>
  <rect x="12" y="36" width="32" height="4" fill="#e6edf3"/>
  <rect x="44" y="36" width="4" height="4" fill="#22d3ee"/>
  <rect x="8" y="40" width="4" height="4" fill="#22d3ee"/>
  <rect x="12" y="40" width="4" height="4" fill="#e6edf3"/>
  <rect x="16" y="40" width="24" height="4" fill="#22d3ee"/>
  <rect x="40" y="40" width="4" height="4" fill="#e6edf3"/>
  <rect x="44" y="40" width="4" height="4" fill="#22d3ee"/>
  <rect x="8" y="44" width="4" height="4" fill="#22d3ee"/>
  <rect x="12" y="44" width="32" height="4" fill="#e6edf3"/>
  <rect x="44" y="44" width="4" height="4" fill="#22d3ee"/>
  <rect x="8" y="48" width="4" height="4" fill="#22d3ee"/>
  <rect x="12" y="48" width="32" height="4" fill="#e6edf3"/>
  <rect x="44" y="48" width="4" height="4" fill="#22d3ee"/>
  <rect x="8" y="52" width="40" height="4" fill="#22d3ee"/>
</svg>
